# xmcd
#
# Track frame offsets: 
#        150
#        6278
#        13272
#        24209
#        36858
#        49669
#        55734
#        63201
#        76295
#        84160
#
# Disc length: 1368 seconds
#
# Revision: 0
# Processed by: cddbd v1.5.2PL0 Copyright (c) Steve Scherf et al.
# Submitted via: ExactAudioCopy v1.0b4
#
DISCID=6905560a
DTITLE=Framix - Comptines pour chanter le Far West
DYEAR=2015
DGENRE=Native American
TTITLE0=Un jour dans sa cabane
TTITLE1=C. Lavallée - La danse du petit Indien
TTITLE2=Unknown Artist - Nous les Indiens
TTITLE3=Unknown Artist - C'est un curieux bonhomme
TTITLE4=She’ll Be Coming Round the Mountain
TTITLE5=N. Tual - Ani couni
TTITLE6=Unknown Artist - Je suis un gars du Far West
TTITLE7=C. Lavallée - Le vieux cow-boy
TTITLE8=Dix petits Indiens
TTITLE9=Nagawicka
EXTD=
EXTT0=
EXTT1=
EXTT2=
EXTT3=
EXTT4=
EXTT5=
EXTT6=
EXTT7=
EXTT8=
EXTT9=
PLAYORDER=
